<svg width="250" height="250" viewBox="0 0 250 250" fill="none" xmlns="http://www.w3.org/2000/svg">
<path opacity="0.85" d="M125 0L0 41.5L19.0655 195.375L125 250L230.934 195.375L250 41.5L125 0Z" fill="#0B7AD1"/>
<path d="M125 0V27.75V27.625V154.25V250L230.934 195.375L250 41.5L125 0Z" fill="#0B7AD1"/>
<path d="M118.812 175H105.242L53.7031 96.1094V175H40.1328V72.625H53.7031L105.383 151.867V72.625H118.812V175ZM156.289 134.922V175H142.789V72.625H180.547C191.75 72.625 200.516 75.4844 206.844 81.2031C213.219 86.9219 216.406 94.4922 216.406 103.914C216.406 113.852 213.289 121.516 207.055 126.906C200.867 132.25 191.984 134.922 180.406 134.922H156.289ZM156.289 123.883H180.547C187.766 123.883 193.297 122.195 197.141 118.82C200.984 115.398 202.906 110.477 202.906 104.055C202.906 97.9609 200.984 93.0859 197.141 89.4297C193.297 85.7734 188.023 83.875 181.32 83.7344H156.289V123.883Z" fill="white"/>
</svg>
